<?xml version="1.0" encoding="UTF-8"?>
<svg xmlns="http://www.w3.org/2000/svg" version="1.1" viewBox="0 0 2160 2160">
  <!-- Generator: Adobe Illustrator 30.0.0, SVG Export Plug-In . SVG Version: 2.1.1 Build 123)  -->
  <defs>
    <style>
      .st0 {
        fill: #f6bd3a;
      }

      .st1 {
        isolation: isolate;
      }
    </style>
  </defs>
  <g id="_Слой_2" data-name="Слой_2" class="st1">
    <path class="st0" d="M1580.87,1460.95c-2.86-28.37-37.65-89.84-65.61-144.16l-348.64-683.49s-16.06-36.74-39.16-57.23c-18.59-16.48-47.44-17.06-47.44-17.06,0,0-28.35-.15-46.95,16.34-23.13,20.5-39.21,57.25-39.21,57.25l-349.04,683.71c-27.99,54.33-62.82,115.83-65.68,144.21-4.06,40.31,13.99,84.78,76.91,73.39,58.44-10.57,220.37-74.81,220.18-74.86l203.79-82.04,204.09,82.48c-.19.05,161.56,64.28,219.93,74.84,62.85,11.38,80.88-33.07,76.83-73.37h0ZM1644.09,1652.56c-34.42,22.09-86.28,31.73-117.72,27.51-88.97-11.91-211.9-62.67-211.9-62.67l-234.45-93.41-234.23,92.8s-123,50.77-212.03,62.68c-31.46,4.21-83.35-5.42-117.8-27.51-132.9-85.25-70.29-244.9-65.96-256.84,4.51-12.45,442.71-865.15,453.9-885.17,11.19-20.02,40.7-52.42,81.67-73.39,43.38-22.19,94.45-24.57,94.45-24.57,6.52.47,54.47,4.74,94.75,25.36,40.94,20.95,70.44,53.35,81.62,73.37,11.18,20.02,449.11,872.59,453.62,885.04,4.33,11.94,66.89,171.57-65.93,256.8h.01Z"/>
  </g>
</svg>